<svg xmlns="http://www.w3.org/2000/svg" version="1.1" xmlns:xlink="http://www.w3.org/1999/xlink" width="1000" height="1000"><metadata><rdf:RDF xmlns:rdf="http://www.w3.org/1999/02/22-rdf-syntax-ns#" xmlns:dc="http://purl.org/dc/elements/1.1/"><rdf:Description><dc:creator>RealFaviconGenerator</dc:creator><dc:source>https://realfavicongenerator.net</dc:source></rdf:Description></rdf:RDF></metadata><g clip-path="url(#SvgjsClipPath1021)"><rect width="1000" height="1000" fill="#ffffff"></rect><g transform="matrix(1.4084205741639297,0,0,1.4084205741639297,50,67.16228778016603)"><svg xmlns="http://www.w3.org/2000/svg" version="1.1" id="svg1" width="639.01367" height="614.6427" viewBox="0 0 639.01368 614.6427" xmlns:svg="http://www.w3.org/2000/svg"><defs id="defs1"><clipPath id="SvgjsClipPath1021"><rect width="1000" height="1000" x="0" y="0" rx="350" ry="350"></rect></clipPath></defs><g id="g1">
    <g id="g2">
      <path id="path3" style="display:inline;fill:#fc0404" d="m 536.14453,0 c 0.15193,0.09638271 0.30521,0.19338786 0.45899,0.29101562 C 536.65506,0.19381727 536.70769,0.09681196 536.75977,0 Z m 101.72266,0 c 0.17212,0.62319296 0.3424,1.2468669 0.52343,1.8671875 0.22944,0.9464534 0.43662,1.8956496 0.62305,2.8476563 V 0 Z M 360.5,30.017578 320,30.259766 279.5,30.5 275.29102,43 l -4.20704,12.5 -82.42382,254 -82.42383,254 -0.68555,2.25 -0.68555,2.25 H 105.93164 107 l 32.29102,-23.47852 32.29296,-23.47851 5.1211,-15.77149 L 181.82617,489.5 193.4375,453.73438 205.04883,417.9668 262.12891,242.23438 319.20898,66.5 l 1.01563,-1.910156 1.01758,-1.910156 0.78711,1.410156 0.78711,1.410156 38.66211,119 38.66406,119 30.98828,95.5 30.99023,95.5 4.18946,12.8418 L 470.5,520.18359 502.67969,543.5918 534.85742,567 H 535.42969 536 v -1.21094 -1.21094 L 488.42969,418.03906 440.85938,271.5 421.51172,212 402.16406,152.5 382.49805,92.005859 362.83008,31.513672 361.66602,30.765625 Z m -38.5332,118.615232 -0.8125,0.9336 -0.8125,0.93359 -7.08985,22 -7.08789,22 -13.00586,40 -13.00586,40 -18.66601,57.5 -18.66602,57.5 -15.76758,48.5 -15.76757,48.5 -0.70899,2.25 -0.71094,2.25 h 1.10352 1.10352 l 53.58789,-39.125 53.58593,-39.12695 1.64453,-0.42969 1.64454,-0.42969 54.83984,40.04688 54.83984,40.04883 0.82032,-0.50586 0.81836,-0.50586 -2.38672,-7.23633 -2.38477,-7.23633 -7.10937,-22 -7.10743,-22 -24.85546,-76.5 -24.85352,-76.5 -21.07617,-64.91406 -21.07422,-64.91406 -0.51953,-0.51954 z M 0,246.02734 v 16.35157 c 0.71605144,-4.97232 1.423704,-9.94537 2.1679688,-14.91016 0.00369,-0.0217 0.00607,-0.0428 0.00977,-0.0644 C 1.4342158,246.95839 0.70865472,246.5005 0,246.02734 Z m 564.98633,126.82227 c -0.50254,0.89909 -0.86327,1.86456 -0.9961,2.91406 -0.004,0.0311 -0.004,0.0503 -0.002,0.0606 v 0.002 l 0.002,0.002 v 0.002 0.002 h 0.002 0.002 0.002 l 0.002,-0.002 H 564 c 0.0588,-0.0642 0.28646,-0.73527 0.39844,-0.98242 0.59956,-1.32327 0.44221,-0.79599 0.58789,-1.99805 z m -235.61524,85.22656 c -0.16117,0.23672 -0.3244,0.47184 -0.49023,0.70313 0.20012,-0.23303 0.36678,-0.47056 0.49023,-0.70313 z m 30.09766,110.21485 c 0.0164,0.12256 0.0709,0.38775 0.0937,0.52929 -0.009,-0.0694 -0.0167,-0.14105 -0.008,-0.16406 l 0.002,-0.002 v -0.002 h 0.002 v -0.002 h 0.002 0.002 0.002 0.002 l 0.002,0.002 h 0.002 l 0.002,0.002 0.002,0.002 v 0.002 l 0.002,0.002 0.002,0.002 c 0.21448,0.27862 0.33983,0.61603 0.50977,0.92383 -0.33519,-0.91963 -0.18917,-0.54563 -0.61914,-1.29492 z m 61.58984,1.95312 c -0.13344,0.2294 -0.26599,0.45913 -0.40039,0.69141 0.41054,0.0145 0.82012,0.0309 1.23047,0.0488 0.0593,0.003 0.11848,0.005 0.17774,0.008 -0.33565,-0.24992 -0.67184,-0.49867 -1.00782,-0.74805 z m 172.06446,14.01367 c 0.0142,0.49485 0.18777,1.09675 0.40625,1.73438 -0.006,-0.0289 -0.011,-0.0566 -0.0176,-0.084 -0.13266,-0.54928 -0.26176,-1.09965 -0.38867,-1.65039 z m 32.71289,28.08203 c -0.0903,0.006 -0.17943,0.0117 -0.26758,0.0156 -0.14288,0.0191 -0.34593,0.0399 -0.47852,0.0527 0.12954,-0.0118 0.36276,-0.0349 0.7461,-0.0684 z m -0.52539,0.95704 c 0.67874,0.80835 0.87174,1.30016 0.95117,1.34179 l 0.002,0.002 0.002,0.002 h 0.002 0.002 0.002 0.002 0.002 0.002 v -0.002 h 0.002 l 0.002,-0.002 0.002,-0.002 0.002,-0.002 c 0.0221,-0.0308 0.0358,-0.1371 0.0605,-0.32032 -0.61092,-0.78108 -0.69483,-0.84286 -1.03515,-1.01757 z"></path>
      <path id="path2" style="fill:#010101" d="m 536.14453,0 c 0.15193,0.09638271 0.30521,0.19338786 0.45899,0.29101562 C 536.65506,0.19381727 536.70769,0.09681196 536.75977,0 Z m 101.72266,0 c 0.17212,0.62319296 0.3424,1.2468669 0.52343,1.8671875 0.22944,0.9464534 0.43662,1.8956496 0.62305,2.8476563 V 0 Z M 360.5,30.017578 320,30.259766 279.5,30.5 275.29102,43 l -4.20704,12.5 -82.42382,254 -82.42383,254 -0.68555,2.25 -0.68555,2.25 H 105.93164 107 l 32.29102,-23.47852 32.29296,-23.47851 5.1211,-15.77149 L 181.82617,489.5 193.4375,453.73438 205.04883,417.9668 262.12891,242.23438 319.20898,66.5 l 1.01563,-1.910156 1.01758,-1.910156 0.78711,1.410156 0.78711,1.410156 38.66211,119 38.66406,119 30.98828,95.5 30.99023,95.5 4.18946,12.8418 L 470.5,520.18359 502.67969,543.5918 534.85742,567 H 535.42969 536 v -1.21094 -1.21094 L 488.42969,418.03906 440.85938,271.5 421.51172,212 402.16406,152.5 382.49805,92.005859 362.83008,31.513672 361.66602,30.765625 Z M 0,246.02734 v 16.35157 c 0.71605144,-4.97232 1.423704,-9.94537 2.1679688,-14.91016 0.00369,-0.0217 0.00607,-0.0428 0.00977,-0.0644 C 1.4342158,246.95839 0.70865472,246.5005 0,246.02734 Z m 564.98633,126.82227 c -0.50254,0.89909 -0.86327,1.86456 -0.9961,2.91406 -0.004,0.0311 -0.004,0.0503 -0.002,0.0606 v 0.002 l 0.002,0.002 v 0.002 0.002 h 0.002 0.002 0.002 l 0.002,-0.002 H 564 c 0.0588,-0.0642 0.28646,-0.73527 0.39844,-0.98242 0.59956,-1.32327 0.44221,-0.79599 0.58789,-1.99805 z m -235.61524,85.22656 c -0.16117,0.23672 -0.3244,0.47184 -0.49023,0.70313 0.20012,-0.23303 0.36678,-0.47056 0.49023,-0.70313 z m 30.09766,110.21485 c 0.0164,0.12256 0.0709,0.38775 0.0937,0.52929 -0.009,-0.0694 -0.0167,-0.14105 -0.008,-0.16406 l 0.002,-0.002 v -0.002 h 0.002 v -0.002 h 0.002 0.002 0.002 0.002 l 0.002,0.002 h 0.002 l 0.002,0.002 0.002,0.002 v 0.002 l 0.002,0.002 0.002,0.002 c 0.21448,0.27862 0.33983,0.61603 0.50977,0.92383 -0.33519,-0.91963 -0.18917,-0.54563 -0.61914,-1.29492 z m 61.58984,1.95312 c -0.13344,0.2294 -0.26599,0.45913 -0.40039,0.69141 0.41054,0.0145 0.82012,0.0309 1.23047,0.0488 0.0593,0.003 0.11848,0.005 0.17774,0.008 -0.33565,-0.24992 -0.67184,-0.49867 -1.00782,-0.74805 z m 172.06446,14.01367 c 0.0142,0.49485 0.18777,1.09675 0.40625,1.73438 -0.006,-0.0289 -0.011,-0.0566 -0.0176,-0.084 -0.13266,-0.54928 -0.26176,-1.09965 -0.38867,-1.65039 z m 32.71289,28.08203 c -0.0903,0.006 -0.17943,0.0117 -0.26758,0.0156 -0.14288,0.0191 -0.34593,0.0399 -0.47852,0.0527 0.12954,-0.0118 0.36276,-0.0349 0.7461,-0.0684 z m -0.52539,0.95704 c 0.67874,0.80835 0.87174,1.30016 0.95117,1.34179 l 0.002,0.002 0.002,0.002 h 0.002 0.002 0.002 0.002 0.002 0.002 v -0.002 h 0.002 l 0.002,-0.002 0.002,-0.002 0.002,-0.002 c 0.0221,-0.0308 0.0358,-0.1371 0.0605,-0.32032 -0.61092,-0.78108 -0.69483,-0.84286 -1.03515,-1.01757 z"></path>
    </g>
  </g></svg></g></g></svg>